<?xml version="1.0" encoding="utf-8"?>
<!-- Generator: Adobe Illustrator 18.0.0, SVG Export Plug-In . SVG Version: 6.00 Build 0)  -->
<!DOCTYPE svg PUBLIC "-//W3C//DTD SVG 1.1//EN" "http://www.w3.org/Graphics/SVG/1.1/DTD/svg11.dtd">
<svg version="1.1" id="Capa_1" xmlns="http://www.w3.org/2000/svg" xmlns:xlink="http://www.w3.org/1999/xlink" x="0px" y="0px"
	 viewBox="0 0 505 196.5" enable-background="new 0 0 505 196.5" xml:space="preserve">
<g>
	<g>
		<path fill="#2E3473" d="M242.6,138h2.7v17.1h-2.7V138z"/>
		<path fill="#2E3473" d="M248.9,142.9h2.5v1.3h0c0.8-1,1.9-1.4,3.3-1.4c1,0,2,0.4,2.9,1.1c0.9,0.7,1.3,1.8,1.3,3.2v8.1h-2.5v-7.2
			c0-0.9-0.2-1.5-0.7-1.9c-0.5-0.5-1.1-0.7-1.8-0.7c-0.7,0-1.3,0.2-1.8,0.7c-0.5,0.4-0.7,1.1-0.7,1.9v7.2h-2.5V142.9z"/>
		<path fill="#2E3473" d="M263.1,151.4c1,1,2.4,1.6,4,1.6c0.7,0,1.3-0.1,1.8-0.4c0.5-0.3,0.7-0.7,0.7-1.1c0-0.4-0.1-0.7-0.4-0.9
			c-0.3-0.2-0.7-0.3-1.1-0.3l-2.2-0.2c-1.1-0.1-1.9-0.4-2.6-1c-0.7-0.6-1-1.4-1-2.4c0-1.2,0.5-2.2,1.4-2.8c0.9-0.6,2-0.9,3.3-0.9
			c0.6,0,1.1,0,1.6,0.1c0.5,0.1,0.9,0.2,1.3,0.3c0.8,0.3,1.5,0.7,2.1,1.2l-1.6,1.8c-0.5-0.3-1-0.6-1.5-0.8c-0.5-0.2-1.1-0.3-1.8-0.3
			c-0.8,0-1.3,0.1-1.7,0.4c-0.3,0.3-0.5,0.6-0.5,1.1c0,0.3,0.1,0.5,0.4,0.7c0.2,0.2,0.7,0.4,1.3,0.4l2.1,0.2
			c1.3,0.1,2.3,0.5,2.8,1.1c0.5,0.7,0.8,1.5,0.8,2.5c0,1.2-0.5,2.1-1.5,2.7c-1,0.7-2.2,1-3.7,1c-2.1,0-3.9-0.7-5.5-2.2L263.1,151.4z
			"/>
		<path fill="#2E3473" d="M275.1,139.2h2.5v3.7h1.8v1.9h-1.8v7.1c0,0.6,0.3,0.9,0.9,0.9h0.9v2.3h-1.3c-0.9,0-1.6-0.3-2.2-0.8
			c-0.6-0.5-0.9-1.2-0.9-2.2v-7.3h-1.3v-1.9h1.3V139.2z"/>
		<path fill="#2E3473" d="M288.7,154L288.7,154c-0.3,0.4-0.6,0.7-1.1,0.9c-0.5,0.2-1.2,0.3-2,0.3c-1.4,0-2.5-0.4-3.2-1.1
			c-0.8-0.7-1.2-1.6-1.2-2.6c0-1,0.3-1.9,1-2.5c0.7-0.7,1.7-1,3-1.1h3.5v-1.3c0-1.1-0.8-1.6-2.6-1.6c-0.6,0-1.1,0.1-1.5,0.2
			c-0.4,0.1-0.7,0.4-0.9,0.8l-2-1.5c1-1.2,2.4-1.8,4.2-1.8c1.6,0,2.8,0.3,3.8,0.9c0.9,0.6,1.4,1.7,1.4,3.1v8.3h-2.5V154z
			 M288.7,149.9h-3c-1.5,0-2.2,0.5-2.2,1.5c0,0.4,0.2,0.8,0.6,1.1c0.4,0.3,1,0.5,1.8,0.5c1.1,0,1.8-0.1,2.2-0.4
			c0.4-0.3,0.6-0.8,0.6-1.8V149.9z"/>
		<path fill="#2E3473" d="M294.9,138h2.5v13.9c0,0.6,0.3,0.8,0.9,0.8h0.9v2.3h-1.1c-0.9,0-1.7-0.2-2.3-0.7c-0.6-0.4-0.9-1.2-0.9-2.3
			V138z"/>
		<path fill="#2E3473" d="M308.1,154L308.1,154c-0.3,0.4-0.6,0.7-1.1,0.9c-0.5,0.2-1.2,0.3-2,0.3c-1.4,0-2.5-0.4-3.2-1.1
			c-0.8-0.7-1.2-1.6-1.2-2.6c0-1,0.3-1.9,1-2.5c0.7-0.7,1.7-1,3.1-1.1h3.5v-1.3c0-1.1-0.8-1.6-2.6-1.6c-0.6,0-1.1,0.1-1.5,0.2
			c-0.4,0.1-0.7,0.4-0.9,0.8l-2-1.5c1-1.2,2.4-1.8,4.2-1.8c1.6,0,2.8,0.3,3.8,0.9c0.9,0.6,1.4,1.7,1.4,3.1v8.3h-2.5V154z
			 M308.1,149.9h-3c-1.5,0-2.2,0.5-2.2,1.5c0,0.4,0.2,0.8,0.6,1.1c0.4,0.3,1,0.5,1.8,0.5c1.1,0,1.8-0.1,2.2-0.4
			c0.4-0.3,0.6-0.8,0.6-1.8V149.9z"/>
		<path fill="#2E3473" d="M323.5,153.1c-0.5,0.6-1.2,1.1-1.9,1.5c-0.7,0.4-1.6,0.6-2.6,0.6c-1.5,0-2.8-0.5-3.9-1.5
			c-1.2-1-1.8-2.6-1.8-4.7c0-2.2,0.6-3.8,1.8-4.8c1.1-1,2.4-1.5,3.9-1.4c1,0,1.8,0.2,2.6,0.6c0.7,0.4,1.4,0.9,1.9,1.5l-1.9,1.6
			c-0.6-0.8-1.5-1.2-2.6-1.3c-2.1,0-3.2,1.2-3.3,3.8c0,2.6,1.1,3.8,3.3,3.8c1.1,0,1.9-0.4,2.6-1.3L323.5,153.1z"/>
		<path fill="#2E3473" d="M325.7,138h2.5v2.4h-2.5V138z M325.7,142.9h2.5v12.1h-2.5V142.9z"/>
		<path fill="#2E3473" d="M331.1,149c0-1.3,0.1-2.3,0.3-3c0.2-0.7,0.6-1.2,1-1.7c0.3-0.4,0.8-0.8,1.5-1.1c0.6-0.3,1.4-0.5,2.4-0.5
			c1,0,1.8,0.2,2.4,0.5c0.6,0.3,1.1,0.7,1.4,1.1c0.5,0.5,0.9,1,1.1,1.7c0.2,0.7,0.3,1.7,0.3,2.9c0,1.3-0.1,2.3-0.3,2.9
			c-0.2,0.7-0.6,1.3-1.1,1.7c-0.2,0.2-0.4,0.4-0.6,0.5c-0.2,0.2-0.5,0.4-0.8,0.5c-0.6,0.3-1.4,0.5-2.4,0.5c-1,0-1.7-0.2-2.4-0.5
			c-0.6-0.3-1.1-0.6-1.5-1c-0.5-0.5-0.8-1.1-1-1.7C331.3,151.2,331.1,150.3,331.1,149z M339,149c0-0.9,0-1.5-0.1-1.9
			c-0.1-0.4-0.2-0.7-0.5-1c-0.2-0.3-0.5-0.5-0.8-0.6c-0.4-0.2-0.8-0.2-1.2-0.2c-0.4,0-0.8,0.1-1.2,0.2c-0.3,0.2-0.6,0.4-0.8,0.6
			c-0.2,0.3-0.4,0.6-0.5,1c-0.1,0.4-0.1,1-0.1,1.9c0,0.8,0,1.5,0.1,1.9c0.1,0.4,0.3,0.8,0.5,1.1c0.2,0.2,0.5,0.4,0.8,0.6
			c0.4,0.2,0.8,0.3,1.2,0.3c0.5,0,0.9-0.1,1.2-0.3c0.4-0.2,0.6-0.4,0.8-0.6c0.2-0.3,0.4-0.7,0.5-1.1C338.9,150.4,339,149.8,339,149z
			 M336.9,137.9h3.3l-3.5,3.5h-2.1L336.9,137.9z"/>
		<path fill="#2E3473" d="M344.6,142.9h2.5v1.3h0c0.8-1,1.9-1.4,3.3-1.4c1,0,2,0.4,2.9,1.1c0.9,0.7,1.3,1.8,1.3,3.2v8.1h-2.5v-7.2
			c0-0.9-0.2-1.5-0.7-1.9c-0.5-0.5-1.1-0.7-1.8-0.7c-0.7,0-1.3,0.2-1.8,0.7c-0.5,0.4-0.7,1.1-0.7,1.9v7.2h-2.5V142.9z"/>
	</g>
	<g>
		<path fill="#2E3473" d="M200.3,53.5h11.3v71.3h-11.3V53.5z"/>
	</g>
	<g>
		<path fill="#2E3473" d="M257.9,53.5h23.9c9.3,0.1,16.2,4.1,20.8,12c1.7,2.7,2.7,5.5,3.1,8.4c0.3,2.9,0.5,8,0.5,15.2
			c0,7.7-0.3,13-0.8,16c-0.3,1.5-0.6,2.9-1.1,4.1c-0.5,1.2-1.2,2.4-1.9,3.7c-2,3.4-4.8,6.1-8.4,8.3c-3.5,2.3-7.9,3.5-13,3.5h-23.2
			V53.5z M268.3,114.6h12.4c5.8,0,10-2.1,12.7-6.2c1.2-1.5,1.9-3.5,2.2-5.8c0.3-2.3,0.4-6.7,0.4-13c0-6.2-0.1-10.7-0.4-13.3
			c-0.4-2.7-1.3-4.9-2.7-6.5c-2.9-4.1-6.9-6.2-12.2-6h-12.4V114.6z"/>
	</g>
	<g>
		<path fill="#2E3473" d="M352.7,109.8c1,1.3,2.2,2.4,3.7,3.3c1.5,1,3.3,1.5,5.4,1.5c2.7,0.1,5.4-0.9,7.8-3c1.2-1,2.2-2.3,2.8-4
			c0.7-1.6,1.1-3.6,1.1-6V53.5h10.3v49.2c-0.1,7.2-2.4,12.7-6.7,16.6c-4.3,4-9.4,6-15.1,6.1c-8-0.2-14-3.3-18-9.2L352.7,109.8z"/>
	</g>
	<path fill-rule="evenodd" clip-rule="evenodd" fill="#2E3473" d="M236,123.9c4.6,0,8.3-3.7,8.3-8.3c0-4.6-3.7-8.3-8.3-8.3
		s-8.3,3.7-8.3,8.3C227.8,120.2,231.5,123.9,236,123.9z"/>
	<path fill-rule="evenodd" clip-rule="evenodd" fill="#2E3473" d="M329.7,123.9c4.6,0,8.3-3.7,8.3-8.3c0-4.6-3.7-8.3-8.3-8.3
		c-4.6,0-8.3,3.7-8.3,8.3C321.4,120.2,325.1,123.9,329.7,123.9z"/>
	<g>
		<path fill="#2E3473" d="M402.7,116.6c2.3,2,5.1,3,8.3,3c3.8-0.1,5.7-1.5,5.8-4.2c0-2.2-1.2-3.6-3.8-4c-1.2-0.2-2.5-0.4-3.9-0.6
			c-2.5-0.4-4.4-1.4-5.7-2.9c-1.3-1.5-2-3.4-2-5.6c0-2.6,0.8-4.7,2.5-6.4c1.6-1.6,4-2.4,7-2.4c3.6,0.1,6.8,1.1,9.4,3.1l-2.5,3.7
			c-2.2-1.5-4.6-2.3-7.2-2.3c-1.4,0-2.5,0.4-3.4,1.1c-0.9,0.7-1.4,1.8-1.5,3.3c0,0.9,0.3,1.7,1,2.4c0.7,0.7,1.7,1.2,3.1,1.5
			c0.8,0.1,1.9,0.3,3.3,0.5c2.7,0.4,4.7,1.4,6.1,3c1.3,1.6,1.9,3.5,1.9,5.6c-0.1,5.8-3.6,8.7-10.2,8.8c-4.3,0-8-1.4-11.1-4.1
			L402.7,116.6z"/>
	</g>
	<g>
		<path fill="#2E3473" d="M454.6,117.2h-11.1l-2.2,6.7h-4.7l10.6-30.1h3.7l10.6,30.1h-4.7L454.6,117.2z M453.3,113.2l-4.2-13.2H449
			l-4.2,13.2H453.3z"/>
	</g>
	<g>
		<path fill="#2E3473" d="M477.2,116.6c2.3,2,5.1,3,8.3,3c3.8-0.1,5.7-1.5,5.8-4.2c0-2.2-1.2-3.6-3.8-4c-1.2-0.2-2.5-0.4-3.9-0.6
			c-2.5-0.4-4.4-1.4-5.7-2.9c-1.3-1.5-2-3.4-2-5.6c0-2.6,0.8-4.7,2.5-6.4c1.6-1.6,4-2.4,7-2.4c3.6,0.1,6.8,1.1,9.4,3.1l-2.5,3.7
			c-2.2-1.5-4.6-2.3-7.2-2.3c-1.4,0-2.5,0.4-3.4,1.1c-0.9,0.7-1.4,1.8-1.5,3.3c0,0.9,0.3,1.7,1,2.4c0.7,0.7,1.7,1.2,3.1,1.5
			c0.8,0.1,1.9,0.3,3.3,0.5c2.7,0.4,4.7,1.4,6.1,3c1.3,1.6,1.9,3.5,1.9,5.6c-0.1,5.8-3.6,8.7-10.2,8.8c-4.3,0-8-1.4-11.1-4.1
			L477.2,116.6z"/>
	</g>
	<path fill-rule="evenodd" clip-rule="evenodd" fill="#2E3473" d="M468.2,123.6c1.4,0,2.6-1.2,2.6-2.6c0-1.4-1.2-2.6-2.6-2.6
		c-1.4,0-2.6,1.2-2.6,2.6C465.6,122.4,466.8,123.6,468.2,123.6z"/>
	<path fill-rule="evenodd" clip-rule="evenodd" fill="#2E3473" d="M429.3,123.6c1.4,0,2.6-1.2,2.6-2.6c0-1.4-1.2-2.6-2.6-2.6
		c-1.4,0-2.6,1.2-2.6,2.6C426.7,122.4,427.9,123.6,429.3,123.6z"/>
	<rect x="199.1" y="129.7" fill-rule="evenodd" clip-rule="evenodd" fill="#2E3473" width="297.5" height="3.6"/>
	<rect x="199.1" y="182.6" fill-rule="evenodd" clip-rule="evenodd" fill="#2E3473" width="297.5" height="3.6"/>
	<g>
		<path fill="#2E3473" d="M372.2,138h2.5l5.1,11.1l5-11.1h2.5v17.1h-2.7v-10.6h-0.1l-3.7,8.2h-2.2l-3.7-8.2h-0.1v10.6h-2.7V138z"/>
		<path fill="#2E3473" d="M390.7,149c0-1.3,0.1-2.3,0.3-3c0.2-0.7,0.6-1.2,1-1.7c0.4-0.4,0.8-0.8,1.5-1.1c0.6-0.3,1.4-0.5,2.4-0.5
			c1,0,1.8,0.2,2.4,0.5c0.6,0.3,1.1,0.7,1.4,1.1c0.5,0.5,0.9,1,1.1,1.7c0.2,0.7,0.3,1.7,0.3,2.9c0,1.3-0.1,2.3-0.3,2.9
			c-0.2,0.7-0.6,1.3-1.1,1.7c-0.2,0.2-0.4,0.4-0.6,0.5c-0.2,0.2-0.5,0.4-0.8,0.5c-0.6,0.3-1.4,0.5-2.4,0.5c-1,0-1.7-0.2-2.4-0.5
			c-0.6-0.3-1.1-0.6-1.5-1c-0.5-0.5-0.8-1.1-1-1.7C390.8,151.2,390.7,150.3,390.7,149z M398.5,149c0-0.9,0-1.5-0.1-1.9
			c-0.1-0.4-0.2-0.7-0.5-1c-0.2-0.3-0.5-0.5-0.8-0.6c-0.3-0.2-0.8-0.2-1.2-0.2c-0.4,0-0.8,0.1-1.2,0.2c-0.3,0.2-0.6,0.4-0.8,0.6
			c-0.2,0.3-0.4,0.6-0.5,1c-0.1,0.4-0.1,1-0.1,1.9c0,0.8,0,1.5,0.1,1.9c0.1,0.4,0.3,0.8,0.5,1.1c0.2,0.2,0.5,0.4,0.8,0.6
			c0.4,0.2,0.8,0.3,1.2,0.3c0.5,0,0.9-0.1,1.2-0.3c0.4-0.2,0.6-0.4,0.8-0.6c0.2-0.3,0.4-0.7,0.5-1.1
			C398.5,150.4,398.5,149.8,398.5,149z"/>
		<path fill="#2E3473" d="M404.1,142.9h2.5v1.3h0.1c0.8-1,1.9-1.4,3.3-1.4c1,0,2,0.4,2.9,1.1c0.9,0.7,1.3,1.8,1.3,3.2v8.1h-2.5v-7.2
			c0-0.9-0.2-1.5-0.7-1.9c-0.5-0.5-1.1-0.7-1.8-0.7c-0.7,0-1.3,0.2-1.8,0.7c-0.5,0.4-0.7,1.1-0.7,1.9v7.2h-2.5V142.9z"/>
		<path fill="#2E3473" d="M418,139.2h2.5v3.7h1.8v1.9h-1.8v7.1c0,0.6,0.3,0.9,0.9,0.9h0.9v2.3h-1.3c-0.9,0-1.6-0.3-2.2-0.8
			c-0.6-0.5-0.9-1.2-0.9-2.2v-7.3h-1.3v-1.9h1.3V139.2z"/>
		<path fill="#2E3473" d="M431.6,154L431.6,154c-0.3,0.4-0.6,0.7-1.1,0.9c-0.5,0.2-1.2,0.3-2,0.3c-1.4,0-2.5-0.4-3.2-1.1
			c-0.8-0.7-1.2-1.6-1.2-2.6c0-1,0.3-1.9,1-2.5c0.7-0.7,1.7-1,3-1.1h3.5v-1.3c0-1.1-0.8-1.6-2.6-1.6c-0.6,0-1.1,0.1-1.5,0.2
			c-0.4,0.1-0.7,0.4-0.9,0.8l-2-1.5c1-1.2,2.4-1.8,4.2-1.8c1.6,0,2.8,0.3,3.8,0.9c0.9,0.6,1.4,1.7,1.4,3.1v8.3h-2.5V154z
			 M431.6,149.9h-3c-1.5,0-2.2,0.5-2.2,1.5c0,0.4,0.2,0.8,0.6,1.1c0.4,0.3,1,0.5,1.8,0.5c1.1,0,1.8-0.1,2.2-0.4
			c0.4-0.3,0.6-0.8,0.6-1.8V149.9z"/>
		<path fill="#2E3473" d="M438.1,142.9h2.5v13.7c0,1-0.4,1.8-1,2.4c-0.7,0.6-1.6,0.9-2.6,1h-1v-2.3h0.7c0.9,0,1.4-0.4,1.4-1.3V142.9
			z M438.1,138h2.5v2.4h-2.5V138z"/>
		<path fill="#2E3473" d="M446.3,149.9c0,1,0.3,1.7,0.9,2.2c0.5,0.5,1.3,0.8,2.1,0.8c1,0,1.9-0.4,2.7-1.2l1.8,1.5
			c-1.3,1.3-2.8,2-4.5,2c-0.7,0-1.3-0.1-1.9-0.3c-0.3-0.1-0.6-0.2-0.9-0.4c-0.3-0.1-0.6-0.3-0.9-0.5c-0.5-0.5-1-1.1-1.3-1.9
			c-0.4-0.8-0.5-1.8-0.5-3c0-1.2,0.2-2.2,0.5-3c0.3-0.8,0.7-1.5,1.2-1.9c0.5-0.5,1.1-0.8,1.7-1c0.6-0.2,1.2-0.3,1.8-0.3
			c1.4,0,2.6,0.5,3.6,1.4c1,0.9,1.5,2.2,1.5,3.8v2H446.3z M451.6,147.9c0-0.9-0.3-1.7-0.8-2.2c-0.5-0.5-1.1-0.7-1.9-0.7
			c-0.8,0-1.4,0.2-1.9,0.7c-0.5,0.5-0.7,1.2-0.8,2.2H451.6z"/>
	</g>
	<path fill-rule="evenodd" clip-rule="evenodd" fill="#2E3473" d="M231.4,149c1.4,0,2.6-1.2,2.6-2.6s-1.2-2.6-2.6-2.6
		c-1.4,0-2.6,1.2-2.6,2.6S230,149,231.4,149z"/>
	<path fill-rule="evenodd" clip-rule="evenodd" fill="#2E3473" d="M363.1,149c1.4,0,2.6-1.2,2.6-2.6s-1.2-2.6-2.6-2.6
		c-1.4,0-2.6,1.2-2.6,2.6S361.7,149,363.1,149z"/>
	<path fill-rule="evenodd" clip-rule="evenodd" fill="#2E3473" d="M461.9,149c1.4,0,2.6-1.2,2.6-2.6s-1.2-2.6-2.6-2.6
		c-1.4,0-2.6,1.2-2.6,2.6S460.5,149,461.9,149z"/>
	<g>
		<path fill="#2E3473" d="M213.5,161.1h2.5l5.1,11.1l5-11.1h2.5v17.1h-2.7v-10.6h-0.1l-3.7,8.2h-2.2l-3.7-8.2h0v10.6h-2.7V161.1z"/>
		<path fill="#2E3473" d="M239.5,177.1L239.5,177.1c-0.3,0.4-0.6,0.7-1.1,0.9c-0.5,0.2-1.2,0.3-2,0.3c-1.4,0-2.5-0.4-3.2-1.1
			c-0.8-0.7-1.2-1.6-1.2-2.6c0-1,0.3-1.9,1-2.5c0.7-0.7,1.7-1,3.1-1.1h3.5v-1.3c0-1.1-0.8-1.6-2.6-1.6c-0.6,0-1.1,0.1-1.5,0.2
			c-0.4,0.1-0.7,0.4-0.9,0.8l-2-1.5c1-1.2,2.4-1.8,4.2-1.8c1.6,0,2.8,0.3,3.8,0.9c0.9,0.6,1.4,1.7,1.4,3.1v8.3h-2.5V177.1z
			 M239.5,173h-3c-1.5,0-2.2,0.5-2.2,1.5c0,0.4,0.2,0.8,0.6,1.1c0.4,0.3,1,0.5,1.8,0.5c1.1,0,1.8-0.1,2.2-0.4
			c0.4-0.3,0.6-0.8,0.6-1.8V173z"/>
		<path fill="#2E3473" d="M246,166.1h2.5v1.3h0c0.8-1,1.9-1.4,3.3-1.4c1,0,2,0.4,2.9,1.1c0.9,0.7,1.3,1.8,1.3,3.2v8.1h-2.5V171
			c0-0.9-0.2-1.5-0.7-1.9c-0.5-0.5-1.1-0.7-1.8-0.7c-0.7,0-1.3,0.2-1.8,0.7c-0.5,0.4-0.7,1.1-0.7,1.9v7.2H246V166.1z"/>
		<path fill="#2E3473" d="M260.2,162.4h2.5v3.7h1.8v1.9h-1.8v7.1c0,0.6,0.3,0.9,0.9,0.9h0.9v2.3h-1.3c-0.9,0-1.6-0.3-2.2-0.8
			c-0.6-0.5-0.9-1.2-0.9-2.2v-7.3H259v-1.9h1.3V162.4z"/>
		<path fill="#2E3473" d="M269.4,173c0,1,0.3,1.7,0.9,2.2c0.5,0.5,1.2,0.8,2.1,0.8c1,0,1.9-0.4,2.7-1.2l1.8,1.5
			c-1.3,1.3-2.8,2-4.5,2c-0.7,0-1.3-0.1-1.9-0.3c-0.3-0.1-0.6-0.2-0.9-0.4c-0.3-0.1-0.6-0.3-0.9-0.5c-0.5-0.5-1-1.1-1.3-1.9
			c-0.4-0.8-0.5-1.8-0.5-3c0-1.2,0.2-2.2,0.5-3c0.3-0.8,0.7-1.5,1.2-1.9c0.5-0.5,1.1-0.8,1.7-1c0.6-0.2,1.2-0.3,1.8-0.3
			c1.4,0,2.6,0.5,3.6,1.4c1,0.9,1.5,2.2,1.5,3.8v2H269.4z M274.7,171c0-0.9-0.3-1.7-0.8-2.2c-0.5-0.5-1.1-0.7-1.9-0.7
			c-0.8,0-1.4,0.2-1.9,0.7c-0.5,0.5-0.7,1.2-0.8,2.2H274.7z"/>
		<path fill="#2E3473" d="M280.6,166.1h2.5v1.3h0.1c0.8-1,1.9-1.4,3.3-1.4c1,0,2,0.4,2.9,1.1c0.9,0.7,1.3,1.8,1.3,3.2v8.1h-2.5V171
			c0-0.9-0.2-1.5-0.7-1.9c-0.5-0.5-1.1-0.7-1.8-0.7c-0.7,0-1.3,0.2-1.8,0.7c-0.5,0.4-0.7,1.1-0.7,1.9v7.2h-2.5V166.1z"/>
		<path fill="#2E3473" d="M294.7,161.1h2.5v2.4h-2.5V161.1z M294.7,166.1h2.5v12.1h-2.5V166.1z"/>
		<path fill="#2E3473" d="M301,166.1h2.5v1.3h0.1c0.9-1,2-1.4,3.4-1.4c0.9,0,1.6,0.2,2.2,0.4c0.5,0.3,1,0.7,1.5,1.2
			c1-1.1,2.4-1.6,4.1-1.6c1.1,0,2.1,0.4,3,1.1c0.9,0.7,1.3,1.8,1.4,3.2v8.1h-2.5V171c0-0.9-0.2-1.5-0.7-1.9
			c-0.5-0.5-1.1-0.7-1.9-0.7c-0.8,0-1.4,0.2-1.9,0.7c-0.5,0.4-0.7,1.1-0.7,1.9v7.2h-2.5V171c0-0.9-0.2-1.5-0.7-1.9
			c-0.5-0.5-1.1-0.7-1.9-0.7c-0.8,0-1.4,0.2-1.9,0.7c-0.5,0.4-0.8,1.1-0.8,1.9v7.2H301V166.1z"/>
		<path fill="#2E3473" d="M323.3,161.1h2.5v2.4h-2.5V161.1z M323.3,166.1h2.5v12.1h-2.5V166.1z"/>
		<path fill="#2E3473" d="M331.5,173c0,1,0.3,1.7,0.9,2.2c0.5,0.5,1.3,0.8,2.1,0.8c1,0,1.9-0.4,2.8-1.2l1.8,1.5
			c-1.3,1.3-2.8,2-4.5,2c-0.7,0-1.3-0.1-1.9-0.3c-0.3-0.1-0.6-0.2-0.9-0.4c-0.3-0.1-0.6-0.3-0.9-0.5c-0.5-0.5-1-1.1-1.3-1.9
			c-0.4-0.8-0.5-1.8-0.5-3c0-1.2,0.2-2.2,0.5-3c0.3-0.8,0.7-1.5,1.2-1.9c0.5-0.5,1.1-0.8,1.7-1c0.6-0.2,1.2-0.3,1.8-0.3
			c1.4,0,2.6,0.5,3.6,1.4c1,0.9,1.5,2.2,1.5,3.8v2H331.5z M336.9,171c0-0.9-0.3-1.7-0.8-2.2c-0.5-0.5-1.1-0.7-1.9-0.7
			c-0.8,0-1.4,0.2-1.9,0.7c-0.5,0.5-0.7,1.2-0.8,2.2H336.9z"/>
		<path fill="#2E3473" d="M342.7,166.1h2.5v1.3h0.1c0.8-1,1.9-1.4,3.3-1.4c1,0,2,0.4,2.9,1.1c0.9,0.7,1.3,1.8,1.3,3.2v8.1h-2.5V171
			c0-0.9-0.2-1.5-0.7-1.9c-0.5-0.5-1.1-0.7-1.8-0.7c-0.7,0-1.3,0.2-1.8,0.7c-0.5,0.4-0.7,1.1-0.7,1.9v7.2h-2.5V166.1z"/>
		<path fill="#2E3473" d="M356.9,162.4h2.5v3.7h1.8v1.9h-1.8v7.1c0,0.6,0.3,0.9,0.9,0.9h0.9v2.3H360c-0.9,0-1.6-0.3-2.2-0.8
			c-0.6-0.5-0.9-1.2-0.9-2.2v-7.3h-1.3v-1.9h1.3V162.4z"/>
		<path fill="#2E3473" d="M363.6,172.1c0-1.3,0.1-2.3,0.3-3c0.2-0.7,0.6-1.2,1-1.7c0.4-0.4,0.8-0.8,1.5-1.1c0.6-0.3,1.4-0.5,2.4-0.5
			c1,0,1.8,0.2,2.4,0.5c0.6,0.3,1.1,0.7,1.4,1.1c0.5,0.5,0.9,1,1.1,1.7c0.2,0.7,0.3,1.7,0.3,2.9c0,1.3-0.1,2.3-0.3,2.9
			c-0.2,0.7-0.6,1.3-1.1,1.7c-0.2,0.2-0.4,0.4-0.6,0.5c-0.2,0.2-0.5,0.4-0.8,0.5c-0.6,0.3-1.4,0.5-2.4,0.5c-1,0-1.7-0.2-2.4-0.5
			c-0.6-0.3-1.1-0.6-1.5-1c-0.5-0.5-0.8-1.1-1-1.7C363.7,174.4,363.6,173.4,363.6,172.1z M371.4,172.1c0-0.9,0-1.5-0.1-1.9
			c-0.1-0.4-0.2-0.7-0.5-1c-0.2-0.3-0.5-0.5-0.8-0.6c-0.3-0.2-0.8-0.2-1.2-0.2c-0.4,0-0.8,0.1-1.2,0.2c-0.3,0.2-0.6,0.4-0.8,0.6
			c-0.2,0.3-0.4,0.6-0.5,1c-0.1,0.4-0.1,1-0.1,1.9c0,0.8,0,1.5,0.1,1.9c0.1,0.4,0.3,0.8,0.5,1.1c0.2,0.2,0.5,0.4,0.8,0.6
			c0.4,0.2,0.8,0.3,1.2,0.3c0.5,0,0.9-0.1,1.2-0.3c0.4-0.2,0.6-0.4,0.8-0.6c0.3-0.3,0.4-0.7,0.5-1.1
			C371.4,173.6,371.4,173,371.4,172.1z"/>
		<path fill="#2E3473" d="M391,176.9c-0.8,0.9-1.9,1.4-3.3,1.4c-0.8,0-1.4-0.2-1.9-0.5c-0.6-0.3-1-0.7-1.4-1.1
			c-0.3-0.4-0.6-0.9-0.7-1.6c-0.1-0.6-0.2-1.7-0.2-3.1c0-1.5,0.1-2.5,0.2-3.1c0.1-0.6,0.3-1.1,0.7-1.5c0.7-1,1.8-1.5,3.4-1.6
			c0.6,0,1.2,0.1,1.8,0.4c0.5,0.3,1,0.6,1.5,1v-6.2h2.5v17.1H391V176.9z M388.5,168.3c-0.6,0-1.1,0.1-1.4,0.3
			c-0.3,0.2-0.6,0.5-0.8,0.9c-0.2,0.4-0.3,0.8-0.3,1.2c0,0.5-0.1,0.9-0.1,1.4c0,0.5,0,0.9,0.1,1.4c0,0.5,0.1,0.9,0.3,1.2
			c0.2,0.4,0.4,0.6,0.8,0.9c0.3,0.2,0.8,0.3,1.4,0.3c0.6,0,1.1-0.1,1.4-0.4c0.3-0.2,0.6-0.5,0.7-0.9c0.2-0.4,0.3-0.8,0.3-1.2
			c0-0.4,0-0.9,0-1.3c0-0.5,0-0.9,0-1.3c-0.1-0.4-0.2-0.8-0.3-1.2c-0.1-0.4-0.4-0.7-0.7-0.9C389.6,168.4,389.1,168.3,388.5,168.3z"
			/>
		<path fill="#2E3473" d="M398.9,173c0,1,0.3,1.7,0.9,2.2c0.5,0.5,1.3,0.8,2.1,0.8c1,0,1.9-0.4,2.8-1.2l1.8,1.5
			c-1.3,1.3-2.8,2-4.5,2c-0.7,0-1.3-0.1-1.9-0.3c-0.3-0.1-0.6-0.2-0.9-0.4c-0.3-0.1-0.6-0.3-0.9-0.5c-0.5-0.5-1-1.1-1.3-1.9
			c-0.4-0.8-0.5-1.8-0.5-3c0-1.2,0.2-2.2,0.5-3c0.3-0.8,0.7-1.5,1.2-1.9c0.5-0.5,1.1-0.8,1.7-1c0.6-0.2,1.2-0.3,1.8-0.3
			c1.4,0,2.6,0.5,3.6,1.4c1,0.9,1.5,2.2,1.5,3.8v2H398.9z M404.3,171c0-0.9-0.3-1.7-0.8-2.2c-0.5-0.5-1.1-0.7-1.9-0.7
			c-0.8,0-1.4,0.2-1.9,0.7c-0.5,0.5-0.7,1.2-0.8,2.2H404.3z"/>
		<path fill="#2E3473" d="M419.5,163.4h-4.8v-2.3H427v2.3h-4.8v14.8h-2.7V163.4z"/>
		<path fill="#2E3473" d="M426.2,172.1c0-1.3,0.1-2.3,0.3-3c0.2-0.7,0.6-1.2,1-1.7c0.3-0.4,0.8-0.8,1.5-1.1c0.6-0.3,1.4-0.5,2.4-0.5
			c1,0,1.8,0.2,2.4,0.5c0.6,0.3,1.1,0.7,1.4,1.1c0.5,0.5,0.9,1,1.1,1.7c0.2,0.7,0.3,1.7,0.3,2.9c0,1.3-0.1,2.3-0.3,2.9
			c-0.2,0.7-0.6,1.3-1.1,1.7c-0.2,0.2-0.4,0.4-0.6,0.5c-0.2,0.2-0.5,0.4-0.8,0.5c-0.6,0.3-1.4,0.5-2.4,0.5c-1,0-1.7-0.2-2.4-0.5
			c-0.6-0.3-1.1-0.6-1.5-1c-0.5-0.5-0.8-1.1-1-1.7C426.3,174.4,426.2,173.4,426.2,172.1z M434.1,172.1c0-0.9,0-1.5-0.1-1.9
			c-0.1-0.4-0.2-0.7-0.5-1c-0.2-0.3-0.5-0.5-0.8-0.6c-0.3-0.2-0.8-0.2-1.2-0.2c-0.4,0-0.8,0.1-1.2,0.2c-0.3,0.2-0.6,0.4-0.8,0.6
			c-0.2,0.3-0.4,0.6-0.5,1c-0.1,0.4-0.1,1-0.1,1.9c0,0.8,0,1.5,0.1,1.9c0.1,0.4,0.3,0.8,0.5,1.1c0.2,0.2,0.5,0.4,0.8,0.6
			c0.4,0.2,0.8,0.3,1.2,0.3c0.5,0,0.9-0.1,1.2-0.3c0.4-0.2,0.6-0.4,0.8-0.6c0.3-0.3,0.4-0.7,0.5-1.1
			C434,173.6,434.1,173,434.1,172.1z"/>
		<path fill="#2E3473" d="M439.9,166.1h2.5v1.3h0.1c0.8-1,1.9-1.4,3.3-1.4c1,0,1.9,0.3,2.6,0.9l-1.8,2.1c-0.5-0.4-1.1-0.6-1.7-0.6
			c-0.6,0-1.2,0.2-1.7,0.6c-0.5,0.4-0.8,1-0.8,1.9v7.3h-2.5V166.1z"/>
		<path fill="#2E3473" d="M450.2,166.1h2.5v1.3h0.1c0.8-1,1.9-1.4,3.3-1.4c1,0,1.9,0.3,2.6,0.9l-1.8,2.1c-0.5-0.4-1.1-0.6-1.7-0.6
			c-0.6,0-1.2,0.2-1.7,0.6c-0.5,0.4-0.8,1-0.8,1.9v7.3h-2.5V166.1z"/>
		<path fill="#2E3473" d="M461.9,173c0,1,0.3,1.7,0.9,2.2c0.5,0.5,1.3,0.8,2.1,0.8c1,0,1.9-0.4,2.7-1.2l1.8,1.5
			c-1.3,1.3-2.8,2-4.5,2c-0.7,0-1.3-0.1-1.9-0.3c-0.3-0.1-0.6-0.2-0.9-0.4c-0.3-0.1-0.6-0.3-0.9-0.5c-0.5-0.5-1-1.1-1.3-1.9
			c-0.4-0.8-0.5-1.8-0.5-3c0-1.2,0.2-2.2,0.5-3c0.3-0.8,0.7-1.5,1.2-1.9c0.5-0.5,1.1-0.8,1.7-1c0.6-0.2,1.2-0.3,1.8-0.3
			c1.4,0,2.6,0.5,3.6,1.4c1,0.9,1.5,2.2,1.5,3.8v2H461.9z M467.2,171c0-0.9-0.3-1.7-0.8-2.2c-0.5-0.5-1.1-0.7-1.9-0.7
			c-0.8,0-1.4,0.2-1.9,0.7c-0.5,0.5-0.7,1.2-0.8,2.2H467.2z"/>
		<path fill="#2E3473" d="M473.5,174.5c1,1,2.4,1.6,4,1.6c0.7,0,1.3-0.1,1.8-0.4c0.5-0.3,0.7-0.7,0.7-1.1c0-0.4-0.1-0.7-0.4-0.9
			c-0.3-0.2-0.7-0.3-1.1-0.3l-2.2-0.2c-1.1-0.1-1.9-0.4-2.6-1c-0.7-0.6-1-1.4-1-2.4c0-1.2,0.5-2.2,1.4-2.8c0.9-0.6,2-0.9,3.3-0.9
			c0.6,0,1.1,0,1.6,0.1c0.5,0.1,0.9,0.2,1.3,0.3c0.8,0.3,1.5,0.7,2.1,1.2l-1.6,1.8c-0.5-0.3-1-0.6-1.5-0.8c-0.5-0.2-1.1-0.3-1.8-0.3
			c-0.8,0-1.3,0.1-1.7,0.4c-0.3,0.3-0.5,0.6-0.5,1.1c0,0.3,0.1,0.5,0.4,0.7c0.2,0.2,0.7,0.4,1.3,0.4l2.1,0.2
			c1.3,0.1,2.3,0.5,2.8,1.2c0.5,0.7,0.8,1.5,0.8,2.5c0,1.2-0.5,2.1-1.5,2.7c-1,0.7-2.2,1-3.7,1c-2.1,0-3.9-0.7-5.5-2.2L473.5,174.5z
			"/>
	</g>
	<path fill-rule="evenodd" clip-rule="evenodd" fill="#2E3473" d="M206.4,174.2c1.4,0,2.6-1.2,2.6-2.6c0-1.4-1.2-2.6-2.6-2.6
		c-1.4,0-2.6,1.2-2.6,2.6C203.8,173,205,174.2,206.4,174.2z"/>
	<path fill-rule="evenodd" clip-rule="evenodd" fill="#2E3473" d="M489.9,174.2c1.4,0,2.6-1.2,2.6-2.6c0-1.4-1.2-2.6-2.6-2.6
		c-1.4,0-2.6,1.2-2.6,2.6C487.3,173,488.5,174.2,489.9,174.2z"/>
	<path fill-rule="evenodd" clip-rule="evenodd" fill="#2E3473" d="M94,10c49.2,0,89,40,89,89.4s-39.8,89.4-89,89.4
		c-49.2,0-89-40-89-89.4S44.9,10,94,10L94,10z M94,15.5c-46.1,0-83.5,37.5-83.5,83.8c0,46.3,37.4,83.8,83.5,83.8
		c46.1,0,83.5-37.5,83.5-83.8C177.5,53.1,140.1,15.5,94,15.5z"/>
	<path fill-rule="evenodd" clip-rule="evenodd" fill="#2E3473" d="M94,23.9c19.6,0,37.5,7.6,50.9,19.9l-25.6,27.4V64
		c0-0.6-0.4-1.1-0.9-1.2l-17.5-8.6c-0.2-7.4-0.4-14.8-0.5-22.1c0-0.3-0.1-0.6-0.4-0.9v0c-1.6-1.7-3.3-3.2-4.9-4.9
		c-0.5-0.5-1.3-0.5-1.8,0l0,0c-1.6,1.7-3.3,3.2-4.9,4.9c-0.3,0.3-0.4,0.6-0.4,0.9c-0.2,7.5-0.3,15-0.6,22.4l-16.8,8.2
		c-0.5,0.2-0.9,0.7-0.9,1.3v7.3l-26-27.8C56.9,31.3,74.6,23.9,94,23.9L94,23.9z M146.8,45.6L119,75.4c-0.2,0.3-0.6,0.5-1,0.5
		c-0.7,0-1.3-0.6-1.3-1.3v-9.3h-15.5c0.2,4.8,0.3,9.6,0.5,14.4l25.9,9.1l0,0c0.5,0.2,0.9,0.7,0.9,1.2v7.3l31.7-34.1
		C156.5,56.8,152,50.8,146.8,45.6L146.8,45.6z M161.3,65.8L128,101.6c-0.5,0.5-1.3,0.6-1.8,0.1c-0.3-0.3-0.4-0.7-0.4-1l0-9.2h-23.6
		c0.3,4.9,0.5,9.8,0.8,14.7l15.3,7.5c0.5,0.2,0.9,0.7,0.9,1.2v7.3l45.1-48.1c0.1-0.1,0.3-0.2,0.4-0.3
		C163.8,71,162.6,68.4,161.3,65.8L161.3,65.8z M165.7,76.5c2.3,7.2,3.5,14.9,3.5,22.9c0,36.1-25.2,66.2-58.9,73.7
		c-3-18.8-5.1-37.9-6.5-56.9h12.9v9.3c0,0.7,0.6,1.3,1.3,1.3c0.4,0,0.8-0.2,1-0.5L165.7,76.5L165.7,76.5z M107.7,173.6
		c-0.6-3.8-1.2-7.7-1.7-11.5l-1.3-1l-8.6,6.8l8,6.3C105.3,174,106.5,173.8,107.7,173.6L107.7,173.6z M100.4,174.6
		c-2.1,0.2-4.2,0.3-6.4,0.3c-2.2,0-4.3-0.1-6.4-0.3l6.4-5L100.4,174.6L100.4,174.6z M83.9,174.2l8-6.3l-8.6-6.8l-1.3,1
		c-0.5,3.8-1.1,7.7-1.7,11.5C81.5,173.8,82.7,174,83.9,174.2L83.9,174.2z M77.8,173.1c-33.7-7.5-58.9-37.6-58.9-73.7
		c0-8.2,1.3-16.1,3.7-23.4l47.3,50.4c0.5,0.5,1.3,0.5,1.8,0.1c0.3-0.3,0.4-0.6,0.4-1l0,0v-9.3h12.1
		C82.9,135.2,80.8,154.2,77.8,173.1L77.8,173.1z M23.5,73.2L23.5,73.2l46,49v-7.3c0-0.6,0.4-1.1,0.9-1.3l14.5-7.1
		c0.3-5,0.6-10.1,0.9-15.1H63l0,9.2c0,0.4-0.1,0.8-0.4,1c-0.5,0.5-1.4,0.5-1.8-0.1L27,65.2C25.7,67.8,24.5,70.4,23.5,73.2L23.5,73.2
		z M28.3,62.8l32.1,34.6l0-7.3c0-0.6,0.4-1,0.9-1.2v0L86.4,80c0.2-4.9,0.4-9.8,0.5-14.7H72.1v9.3l0,0c0,0.3-0.1,0.7-0.4,1
		c-0.5,0.5-1.4,0.5-1.8-0.1L41.7,45.2C36.4,50.4,31.9,56.3,28.3,62.8L28.3,62.8z M76.5,62.7H87c0.1-1.7,0.1-3.5,0.2-5.2L76.5,62.7
		L76.5,62.7z M91.7,62.7h4.5l0.7-1.1L94,56.8l-2.9,4.9L91.7,62.7L91.7,62.7z M101,62.7h11.3l-11.4-5.6C100.9,58.9,101,60.8,101,62.7
		L101,62.7z M98.5,65.3h-0.9l-2.1,3.3l2.7,4.2l0.6-0.8C98.7,69.7,98.6,67.5,98.5,65.3L98.5,65.3z M94.5,65.3h-1.1l0.6,0.9L94.5,65.3
		L94.5,65.3z M90.3,65.3h-0.8c-0.1,2.2-0.2,4.5-0.2,6.7l0.5,0.7l2.6-4.2L90.3,65.3L90.3,65.3z M89.9,53.2l1.6-0.8l-0.7-1.2l-0.9,1.6
		L89.9,53.2L89.9,53.2z M93.8,51.3L93.8,51.3c0.2-0.1,0.4-0.1,0.5-0.1l1.5-2.5L94,45.4l-1.8,3.3L93.8,51.3L93.8,51.3z M92,55.1
		l-2.2,1.1l-0.1,2.8L92,55.1L92,55.1z M96.8,52.2l1.4,0.7l0-0.1l-0.8-1.5L96.8,52.2L96.8,52.2z M98.2,55.8l-2.5-1.2l2.6,4.4
		L98.2,55.8L98.2,55.8z M76.5,113.6h7.9c0-0.2,0-0.4,0.1-0.6c0.1-1.1,0.2-2.3,0.2-3.4L76.5,113.6L76.5,113.6z M87.4,113.6h3.7
		l-1.9-2.1L87.4,113.6L87.4,113.6z M97,113.6h3.7l-1.8-2.1L97,113.6L97,113.6z M103.6,113.6c0-0.2,0-0.4-0.1-0.6
		c-0.1-1.3-0.2-2.5-0.3-3.8l9.1,4.4H103.6L103.6,113.6z M101.1,116.2H97l3.1,3.4l1.2-1.2L101.1,116.2L101.1,116.2z M91.1,116.2h-4.2
		l-0.2,2.2l1.2,1.2L91.1,116.2L91.1,116.2z M87.7,105.2l4.3-2.1l-2.6-3.1l-1.6,2.1l-0.1,1.4L87.7,105.2L87.7,105.2z M89.1,107.4
		L89.1,107.4L89.1,107.4L89.1,107.4L89.1,107.4z M96.3,102.8l4.1,2l-0.1-1.4l-0.1-1.4l-1.5-2.1L96.3,102.8L96.3,102.8z M99.3,107.2
		l-0.8-0.4l0.5,0.7L99.3,107.2L99.3,107.2z M89,79.1l1.6-0.6l-0.7-1L89,78.9L89,79.1L89,79.1z M93.2,77.6l0.8-0.3l0,0v0l0.1,0l0,0
		l0.1,0l0,0l0.1,0l0,0l0,0h0l0,0l0,0l0.1,0l0,0l0.1,0l0,0l0.1,0l0,0l0,0l0.2,0.1l1.6-2.3L94,71l-2.6,4.1L93.2,77.6L93.2,77.6z
		 M92.2,80.7l-3.3,1.1l0,0.6l1.3,1.8l2.2-3.2L92.2,80.7L92.2,80.7z M86.2,82.8l-17,6H86C86.1,86.8,86.2,84.8,86.2,82.8L86.2,82.8z
		 M119.5,88.8h-17.4c-0.1-2.1-0.2-4.2-0.3-6.3L119.5,88.8L119.5,88.8z M99.1,81.6L96,80.5l-0.4,0.6l2.2,3.2l1.3-1.8L99.1,81.6
		L99.1,81.6z M97.6,78.3l1.4,0.5l-0.8-1.3L97.6,78.3L97.6,78.3z M90.3,88.8L90.3,88.8L90.3,88.8L90.3,88.8L90.3,88.8z M93.6,88.8
		l-1.7-2.3l2.2-3.1l2.2,3.1l-1.7,2.3H93.6L93.6,88.8z M97.7,88.8L97.7,88.8L97.7,88.8L97.7,88.8L97.7,88.8z M99.6,91.4h-3.8
		l-0.1,0.2l3.1,4.2l1-1.2L99.6,91.4L99.6,91.4L99.6,91.4z M92.3,91.4h-3.8v0c-0.1,1-0.1,2.1-0.2,3.1l1,1.2l3.1-4.2L92.3,91.4
		L92.3,91.4z M105.3,157.3c-0.3-2.2-0.6-4.5-0.8-6.7l-3.6-3.1l-4.8,3.7l8.5,6.6L105.3,157.3L105.3,157.3z M104,146.8l-0.2-1.6
		l-0.9,0.7L104,146.8L104,146.8z M103.5,142.2c-0.1-1.3-0.3-2.7-0.4-4l-2.5-2.4l-4.6,4l5,4.3L103.5,142.2L103.5,142.2z M102.7,134.1
		l0-0.1L102.7,134.1L102.7,134.1L102.7,134.1z M102.4,130.8c-0.2-1.7-0.3-3.5-0.5-5.2l-1.9-2.1l-4.1,4l4.9,4.8L102.4,130.8
		L102.4,130.8z M97.9,45c-0.1-2.1-0.1-4.3-0.2-6.4l-2.3,4.1l1.9,3.3L97.9,45L97.9,45z M97.7,33.4l0-0.8c-0.7-0.7-1.4-1.4-2.1-2
		c-0.5-0.5-1-1-1.6-1.5c-0.5,0.5-1,1-1.6,1.5c-0.7,0.7-1.4,1.4-2.1,2l0,0.9L94,40L97.7,33.4L97.7,33.4z M90.3,38.6
		c-0.1,2.2-0.1,4.3-0.2,6.5l0.6,1l1.9-3.4L90.3,38.6L90.3,38.6z M86.2,125.5c-0.2,1.7-0.3,3.5-0.5,5.2l1.6,1.4l4.9-4.8l-4.1-4
		L86.2,125.5L86.2,125.5z M85.4,134l0,0.1L85.4,134L85.4,134L85.4,134z M85,138.2c-0.1,1.3-0.3,2.7-0.4,4l2.5,2l5-4.3l-4.6-4
		L85,138.2L85,138.2z M84.2,145.2l-0.2,1.6l1-0.9L84.2,145.2L84.2,145.2z M83.6,150.6c-0.3,2.2-0.6,4.5-0.9,6.7l0.6,0.5l8.6-6.6
		l-4.8-3.7L83.6,150.6L83.6,150.6z M89.1,145.8l4.9-4.2l4.9,4.2l-4.9,3.8L89.1,145.8L89.1,145.8z M102.6,159.5l-8.6,6.8l-8.6-6.7
		l8.6-6.7L102.6,159.5L102.6,159.5z M89.3,133.9l4.7-4.7l4.7,4.7L94,138L89.3,133.9L89.3,133.9z M89.8,121.5l4.2-4.6l4.2,4.6
		l-4.2,4.1L89.8,121.5L89.8,121.5z M90.8,109.4l3.2-3.9l3.2,3.9L94,113L90.8,109.4L90.8,109.4z M91,97.8l3-4l3,4l-3,3.6L91,97.8z"/>
</g>
</svg>
